<svg width="36" height="36" fill="none" xmlns="http://www.w3.org/2000/svg"><path d="M16.044 6.021c.615-1.895 3.297-1.895 3.912 0l1.623 4.995a2.057 2.057 0 0 0 1.957 1.421h5.252c1.993 0 2.821 2.55 1.209 3.722l-4.249 3.087a2.057 2.057 0 0 0-.747 2.3l1.623 4.995c.616 1.895-1.554 3.47-3.166 2.3l-4.249-3.087a2.057 2.057 0 0 0-2.418 0l-4.25 3.087c-1.611 1.17-3.78-.405-3.165-2.3L11 21.546a2.057 2.057 0 0 0-.747-2.3l-4.249-3.087c-1.612-1.171-.784-3.722 1.21-3.722h5.251c.891 0 1.681-.573 1.957-1.421l1.623-4.995Z" fill="#E3E6F0"/></svg>