<svg width="2" height="217" fill="none" xmlns="http://www.w3.org/2000/svg"><path fill="#CCCFD7" d="M0 0h2v217H0z"/><path d="M-2971-914c0-1.104.9-2 2-2h4125c1.1 0 2 .895 2 2v13234c0 1.1-.9 2-2 2h-4125c-1.1 0-2-.9-2-2V-914Z" fill="#E9E9E9"/><g clip-path="url(#a)"><path fill="#fff" d="M-187-391h375v12004h-375z"/><g clip-path="url(#b)"><path fill="#142257" d="M-187-391h375v632h-375z"/><path d="M1 0v217" stroke="url(#c)"/><path d="M141 109h-280" stroke="url(#d)"/></g></g><path d="M-2969-915h4125v-2h-4125v2Zm4126 1v13234h2V-914h-2Zm-1 13235h-4125v2h4125v-2Zm-4126-1V-914h-2v13234h2Zm1 1c-.55 0-1-.4-1-1h-2c0 1.7 1.34 3 3 3v-2Zm4126-1c0 .6-.45 1-1 1v2c1.66 0 3-1.3 3-3h-2Zm-1-13235c.55 0 1 .448 1 1h2c0-1.657-1.34-3-3-3v2Zm-4125-2c-1.66 0-3 1.344-3 3h2c0-.552.45-1 1-1v-2Z" fill="#000" fill-opacity=".1"/><defs><linearGradient id="c" x1="1.5" y1="0" x2="1.5" y2="224.5" gradientUnits="userSpaceOnUse"><stop stop-color="#4F66B7" stop-opacity="0"/><stop offset=".479" stop-color="#4F66B7"/><stop offset="1" stop-color="#4F66B7" stop-opacity="0"/></linearGradient><linearGradient id="d" x1="163.5" y1="109.5" x2="-162.5" y2="109.5" gradientUnits="userSpaceOnUse"><stop stop-color="#4F66B7" stop-opacity="0"/><stop offset=".479" stop-color="#4F66B7"/><stop offset="1" stop-color="#4F66B7" stop-opacity="0"/></linearGradient><clipPath id="a"><path fill="#fff" transform="translate(-187 -391)" d="M0 0h375v12004H0z"/></clipPath><clipPath id="b"><path fill="#fff" transform="translate(-187 -391)" d="M0 0h375v632H0z"/></clipPath></defs></svg>