<svg width="30" height="25" fill="none" xmlns="http://www.w3.org/2000/svg"><path d="M0 1a1 1 0 0 1 1-1h12.082a1 1 0 0 1 1 1v4.757a1 1 0 0 1-1 1H1a1 1 0 0 1-1-1V1Zm0 9.122a1 1 0 0 1 1-1h5.96a1 1 0 0 1 1 1v4.756a1 1 0 0 1-1 1H1a1 1 0 0 1-1-1v-4.756Zm9.796 0a1 1 0 0 1 1-1h12.082a1 1 0 0 1 1 1v4.756a1 1 0 0 1-1 1H10.796a1 1 0 0 1-1-1v-4.756ZM0 19.243a1 1 0 0 1 1-1h12.082a1 1 0 0 1 1 1V24a1 1 0 0 1-1 1H1a1 1 0 0 1-1-1v-4.757Zm15.918 0a1 1 0 0 1 1-1H29a1 1 0 0 1 1 1V24a1 1 0 0 1-1 1H16.918a1 1 0 0 1-1-1v-4.757Z" fill="#fff"/></svg>