<svg width="36" height="33" fill="none" xmlns="http://www.w3.org/2000/svg"><path d="M26.68 4.955a3.026 3.026 0 0 0 2.25 5.124 3.035 3.035 0 0 0 2.125-.93l4.03-4.192a8.554 8.554 0 0 1-1.475 9.78 8.581 8.581 0 0 1-9.725 1.87c-2.133-1.588-3.08-2.508-4.376-4.194a8.554 8.554 0 0 1 1.476-9.78A8.581 8.581 0 0 1 30.71.763l-4.03 4.192ZM11.616 20.787l4.398 4.17-6.53 6.926a3.035 3.035 0 0 1-5.219-2.036 3.026 3.026 0 0 1 .844-2.158l6.507-6.902Zm5.55-7.484 14.292 13.552a3.558 3.558 0 0 1 .169 4.995 3.57 3.57 0 0 1-5.082.171L12.253 18.469a3.56 3.56 0 0 1-.736-4.174L4.882 7.9l-1.23 1.23L0 4.21l2.258-2.494 5.28 3.528-1.22 1.22 6.586 6.349a3.573 3.573 0 0 1 4.262.49Z" fill="#fff"/></svg>