<svg width="31" height="40" fill="none" xmlns="http://www.w3.org/2000/svg"><path d="M30.295 9.978h-16.82a4.056 4.056 0 1 0 0 5.796h16.82a.58.58 0 0 0 .58-.58v-4.636a.58.58 0 0 0-.58-.58Z" fill="#fff"/><path d="M15.66.73H4.228A2.858 2.858 0 0 0 1.37 3.586L.824 36.413a2.858 2.858 0 0 0 2.858 2.858h11.432a2.858 2.858 0 0 0 2.858-2.858l.546-18.535h-3.82a6.43 6.43 0 1 1-.001-10.004h3.82V3.587A2.858 2.858 0 0 0 15.66.73ZM9.398 24.266a2.845 2.845 0 0 1 1.429 5.313v3.26a.714.714 0 0 1-.715.715H8.683a.715.715 0 0 1-.714-.714v-3.26a2.845 2.845 0 0 1 1.429-5.313Z" fill="#fff"/></svg>