<svg width="2" height="217" viewBox="0 0 2 217" fill="none" xmlns="http://www.w3.org/2000/svg">
<rect width="2" height="217" fill="#CCCFD7"/>
<g id="Landing Page V1">
<path d="M-2971 -914C-2971 -915.104 -2970.1 -916 -2969 -916H1156C1157.1 -916 1158 -915.105 1158 -914V12320C1158 12321.1 1157.1 12322 1156 12322H-2969C-2970.1 12322 -2971 12321.1 -2971 12320V-914Z" fill="#E9E9E9"/>
<g id="Landing-Page-V1__Mobile" clip-path="url(#clip0_0_1)">
<rect width="375" height="12004" transform="translate(-187 -391)" fill="white"/>
<g id="Hero Section" clip-path="url(#clip1_0_1)">
<rect width="375" height="632" transform="translate(-187 -391)" fill="#142257"/>
<g id="Highlights">
<path id="Line" d="M1 0V217" stroke="url(#paint0_linear_0_1)"/>
<path id="Line_2" d="M141 109L-139 109" stroke="url(#paint1_linear_0_1)"/>
</g>
</g>
</g>
<path d="M-2969 -915H1156V-917H-2969V-915ZM1157 -914V12320H1159V-914H1157ZM1156 12321H-2969V12323H1156V12321ZM-2970 12320V-914H-2972V12320H-2970ZM-2969 12321C-2969.55 12321 -2970 12320.6 -2970 12320H-2972C-2972 12321.7 -2970.66 12323 -2969 12323V12321ZM1157 12320C1157 12320.6 1156.55 12321 1156 12321V12323C1157.66 12323 1159 12321.7 1159 12320H1157ZM1156 -915C1156.55 -915 1157 -914.552 1157 -914H1159C1159 -915.657 1157.66 -917 1156 -917V-915ZM-2969 -917C-2970.66 -917 -2972 -915.656 -2972 -914H-2970C-2970 -914.552 -2969.55 -915 -2969 -915V-917Z" fill="black" fill-opacity="0.1"/>
</g>
<defs>
<linearGradient id="paint0_linear_0_1" x1="1.5" y1="0" x2="1.5" y2="224.5" gradientUnits="userSpaceOnUse">
<stop stop-color="#4F66B7" stop-opacity="0"/>
<stop offset="0.479167" stop-color="#4F66B7"/>
<stop offset="1" stop-color="#4F66B7" stop-opacity="0"/>
</linearGradient>
<linearGradient id="paint1_linear_0_1" x1="163.5" y1="109.5" x2="-162.5" y2="109.5" gradientUnits="userSpaceOnUse">
<stop stop-color="#4F66B7" stop-opacity="0"/>
<stop offset="0.479167" stop-color="#4F66B7"/>
<stop offset="1" stop-color="#4F66B7" stop-opacity="0"/>
</linearGradient>
<clipPath id="clip0_0_1">
<rect width="375" height="12004" fill="white" transform="translate(-187 -391)"/>
</clipPath>
<clipPath id="clip1_0_1">
<rect width="375" height="632" fill="white" transform="translate(-187 -391)"/>
</clipPath>
</defs>
</svg>
