<svg width="100" height="100" fill="none" xmlns="http://www.w3.org/2000/svg"><path fill-rule="evenodd" clip-rule="evenodd" d="M57.471 15.553a.898.898 0 0 0-.898-.898H31.43a9.878 9.878 0 0 0-9.878 9.878V74.82a9.878 9.878 0 0 0 9.878 9.878h35.92a9.878 9.878 0 0 0 9.877-9.877v-3.955l-1.188 1.184-9.663 2.226-.323.032a7.087 7.087 0 0 1-1.21.02 7.145 7.145 0 0 1-6.69-8.665l.006-.032 2.16-9.324 16.905-16.952a.898.898 0 0 0-.895-.824H60.165a2.694 2.694 0 0 1-2.694-2.694V15.553Zm-28.77 28.413a2.586 2.586 0 0 1 2.585-2.586h11.207a2.586 2.586 0 0 1 0 5.172H31.286a2.586 2.586 0 0 1-2.586-2.586Zm0 12.93a2.586 2.586 0 0 1 2.585-2.586h19.828a2.586 2.586 0 0 1 0 5.173H31.286a2.586 2.586 0 0 1-2.586-2.586ZM28.7 69.829a2.586 2.586 0 0 1 2.586-2.586h19.828a2.586 2.586 0 1 1 0 5.173H31.286a2.586 2.586 0 0 1-2.586-2.587Z" fill="#9EA3B5"/><path d="M77.227 63.56V46.678L65.025 58.913l-1.82 7.855a1.972 1.972 0 0 0 1.916 2.394c.137.014.275.014.412 0l7.902-1.82 3.792-3.781ZM63.16 17.67c0-.628.63-1.027 1.096-.634.395.334.75.722 1.054 1.165l9.834 14.308a.48.48 0 0 1-.405.75H63.976a.799.799 0 0 1-.577-.25.872.872 0 0 1-.24-.602V17.67Z" fill="#9EA3B5"/><path d="m65.025 58.913-1.82 7.855a1.972 1.972 0 0 0 1.916 2.394c.137.014.275.014.412 0l7.902-1.82 13.863-13.824-8.468-8.449-13.805 13.844ZM93.378 44.66l-5.652-5.651a1.983 1.983 0 0 0-2.797 0l-3.141 3.142 8.458 8.457 3.141-3.141a1.981 1.981 0 0 0-.01-2.807Z" fill="#9EA3B5"/></svg>