<svg width="100" height="100" fill="none" xmlns="http://www.w3.org/2000/svg"><path d="m40.668 83-23 3-3.5-16.5 17.5-3 9 16.5Zm50-1.5-21 2.5-3.5-16.5 15.5-2.5 9 16.5Zm-49.474-8.62-1.026.12 8.5 15 16.5-1L61.7 70.655a95.66 95.66 0 0 1-2.195 1.926c-5.304 4.514-12.906 4.614-18.312.3Z" fill="#9EA3B5"/><path fill-rule="evenodd" clip-rule="evenodd" d="M56.265 68.773c7.685-6.54 19.903-19.132 19.903-33.091 0-6.944-2.74-13.604-7.616-18.514A25.908 25.908 0 0 0 50.168 9.5a25.908 25.908 0 0 0-18.385 7.669 26.275 26.275 0 0 0-7.615 18.513c0 13.96 12.218 26.552 19.903 33.091 3.556 3.027 8.638 3.027 12.194 0ZM62.168 35.5c0 6.627-5.373 12-12 12-6.628 0-12-5.373-12-12s5.372-12 12-12c6.627 0 12 5.373 12 12Z" fill="#9EA3B5"/></svg>